# xmcd CD database file
#
# Track frame offsets:
#	150
#	9003
#	25024
#	33637
#	48767
#	59909
#	70796
#	79110
#	93390
#	104814
#	115221
#	134050
#	144659
#	158744
#	175431
#	190634
#	204284
#	213942
#	229451
#	245977
#	260424
#	270427
#	287173
#	298360
#	311567
#	328828
#
# Disc length: 4530 seconds
#
# Revision: 0
# Processed by: cddbd v1.5.2PL0 Copyright (c) Steve Scherf et al.
# Submitted via: CDex 1.70beta2
#
DISCID=9111b01a
DTITLE=Greenhorns - Zlata Era 1967-1974 [CD1)
DYEAR=2007
DGENRE=Country
TTITLE0=Abilene (Abilene)
TTITLE1=Zatracenej život (Before I Met You)
TTITLE2=A tak já zas v tom lítám (Salty Dog Blues)
TTITLE3=Houston (Houston)
TTITLE4=Já jsem vandrák a karbaník (I Am Rambler And Gambler)
TTITLE5=Rovnou tady rovnou (Roll On Budy Roll On)
TTITLE6=Hardy (If I Loose)
TTITLE7=Vlak půlnoční (I'm So Lonesome I Could Cry)
TTITLE8=Na sluneční straně hor (Sunny Side Of The Mountain)
TTITLE9=Kočárem mým je vagon uhlí (You're Gonna Change Or I'm Gonna Leave)
TTITLE10=Proklatej vůz (Three Wheels On My Wagon)
TTITLE11=Odjíždím v dál [I'm a Long Gone Daddy]
TTITLE12=Zátoka (Lonesome, Lonesome)
TTITLE13=Svatební zvony (Wedding Bells)
TTITLE14=Žloutnou už trávy (I Am That Easy To Forget) 
TTITLE15=T jako Texas (Blue Yodel #1 - T for Texas)
TTITLE16=John Hardy (John Hardy) 
TTITLE17=Červená řeka (Red River) 
TTITLE18=Přes pláně (Crossing The Plains) 
TTITLE19=Drnová chajda (The Little Old Sad Shanty)
TTITLE20=Má whisky (Rye Whisky)
TTITLE21=Dnešní noc bude dlouhá, má drahá
TTITLE22=Waterloo (Waterloo)
TTITLE23=Jen tohle chci ti říct (Up To My Neck In High)
TTITLE24=Poslední hrana (Long Gone Lonesome Blus)
TTITLE25=Blues Folsomské věznice (Folsom Prison Blues)
EXTD=YEAR: 2007
EXTT0=
EXTT1=
EXTT2=
EXTT3=
EXTT4=
EXTT5=
EXTT6=
EXTT7=
EXTT8=
EXTT9=
EXTT10=
EXTT11=
EXTT12=
EXTT13=
EXTT14=
EXTT15=
EXTT16=
EXTT17=
EXTT18=
EXTT19=
EXTT20=
EXTT21=
EXTT22=
EXTT23=
EXTT24=
EXTT25=
PLAYORDER=
